<?xml version="1.0" encoding="UTF-8"?>
<svg width="1000" height="1000" version="1.1" viewBox="0 0 1000 1000" xmlns="http://www.w3.org/2000/svg">
 <g fill="none" stroke="#2C3E50" stroke-width="2">
  <!-- Stars -->
  <path d="m100,100 l10,0 l-8,6 l3,-9 l3,9 l-8,-6 l10,0"/>
  <path d="m800,200 l10,0 l-8,6 l3,-9 l3,9 l-8,-6 l10,0"/>
  <path d="m300,800 l10,0 l-8,6 l3,-9 l3,9 l-8,-6 l10,0"/>
  
  <!-- Spiral -->
  <path d="m500,500 c0,0 50,-50 100,-50 c50,0 50,50 0,50 c-50,0 -50,-50 0,-50"/>
  
  <!-- Hearts -->
  <path d="m200,300 c5,-5 15,-5 20,0 c5,-5 15,-5 20,0 c0,20 -20,20 -20,35 c0,-15 -20,-15 -20,-35"/>
  <path d="m700,600 c5,-5 15,-5 20,0 c5,-5 15,-5 20,0 c0,20 -20,20 -20,35 c0,-15 -20,-15 -20,-35"/>
  
  <!-- Cloud -->
  <path d="m400,200 c0,-20 40,-20 40,0 c20,-20 60,0 40,20 c0,20 -80,20 -80,0"/>
  
  <!-- Books -->
  <path d="m600,400 l40,0 l0,60 l-40,0 l0,-60 m0,10 l40,0 m-40,10 l40,0"/>
  <path d="m620,400 l40,0 l0,60 l-40,0 l0,-60 m0,10 l40,0 m-40,10 l40,0"/>
  
  <!-- Music Notes -->
  <path d="m150,500 l0,-30 l10,0 l0,30 m10,-30 l0,30 m-20,-15 l20,0"/>
  <path d="m850,300 l0,-30 l10,0 l0,30 m10,-30 l0,30 m-20,-15 l20,0"/>
  
  <!-- Pencil -->
  <path d="m750,750 l30,-30 l10,10 l-30,30 l-10,-10 m40,-40 l10,10"/>
  
  <!-- Coffee Cup -->
  <path d="m250,650 c0,0 10,-10 30,-10 c20,0 30,10 30,10 l0,30 c0,0 -10,10 -30,10 c-20,0 -30,-10 -30,-10 l0,-30"/>
  
  <!-- Calculator -->
  <path d="m850,850 l-40,0 l0,-60 l40,0 l0,60 m-35,-55 l30,0 m-30,15 l10,0 m10,0 l10,0 m-30,15 l10,0 m10,0 l10,0"/>
</g>
</svg>